<?xml version="1.0" encoding="UTF-8" standalone="no"?>
<!DOCTYPE svg PUBLIC "-//W3C//DTD SVG 1.1//EN"
 "http://www.w3.org/Graphics/SVG/1.1/DTD/svg11.dtd">
<!-- Generated by graphviz version 2.38.0 (20140413.2041)
 -->
<!-- Title: %3 Pages: 1 -->
<svg width="878pt" height="418pt"
 viewBox="0.00 0.00 878.00 418.00" xmlns="http://www.w3.org/2000/svg" xmlns:xlink="http://www.w3.org/1999/xlink">
<g id="graph0" class="graph" transform="scale(1 1) rotate(0) translate(4 414)">
<title>%3</title>
<polygon fill="white" stroke="none" points="-4,4 -4,-414 874,-414 874,4 -4,4"/>
<g id="clust1" class="cluster"><title>cluster_server</title>
<polygon fill="none" stroke="black" points="9,-8 9,-280 698,-280 698,-8 9,-8"/>
<text text-anchor="middle" x="353.5" y="-264.8" font-family="Times New Roman,serif" font-size="14.00">server</text>
</g>
<g id="clust4" class="cluster"><title>cluster_sim</title>
<polygon fill="none" stroke="black" points="17,-16 17,-91 245,-91 245,-16 17,-16"/>
<text text-anchor="middle" x="131" y="-75.8" font-family="Times New Roman,serif" font-size="14.00">simulation1</text>
</g>
<g id="clust3" class="cluster"><title>cluster_webapp</title>
<polygon fill="none" stroke="black" points="446,-99 446,-174 690,-174 690,-99 446,-99"/>
<text text-anchor="middle" x="568" y="-158.8" font-family="Times New Roman,serif" font-size="14.00">webapp</text>
</g>
<g id="clust2" class="cluster"><title>cluster_manager</title>
<polygon fill="none" stroke="black" points="17,-99 17,-249 438,-249 438,-99 17,-99"/>
<text text-anchor="middle" x="227.5" y="-233.8" font-family="Times New Roman,serif" font-size="14.00">manager</text>
</g>
<g id="clust5" class="cluster"><title>cluster_user1</title>
<polygon fill="none" stroke="black" points="8,-288 8,-402 322,-402 322,-288 8,-288"/>
<text text-anchor="middle" x="165" y="-386.8" font-family="Times New Roman,serif" font-size="14.00">user1</text>
</g>
<g id="clust6" class="cluster"><title>cluster_opt</title>
<polygon fill="none" stroke="black" points="16,-296 16,-371 242,-371 242,-296 16,-296"/>
<text text-anchor="middle" x="129" y="-355.8" font-family="Times New Roman,serif" font-size="14.00">optimizer</text>
</g>
<!-- mgmt -->
<g id="node1" class="node"><title>mgmt</title>
<ellipse fill="none" stroke="black" cx="399" cy="-200" rx="31.3957" ry="18"/>
<text text-anchor="middle" x="399" y="-196.3" font-family="Times New Roman,serif" font-size="14.00">mgmt</text>
</g>
<!-- x -->
<!-- mgmt&#45;&gt;x -->
<!-- experiment -->
<g id="node8" class="node"><title>experiment</title>
<ellipse fill="none" stroke="black" cx="504" cy="-125" rx="50.0912" ry="18"/>
<text text-anchor="middle" x="504" y="-121.3" font-family="Times New Roman,serif" font-size="14.00">experiment</text>
</g>
<!-- mgmt&#45;&gt;experiment -->
<g id="edge13" class="edge"><title>mgmt&#45;&gt;experiment</title>
<path fill="none" stroke="black" d="M429.426,-181.986C433.704,-179.399 438.003,-176.692 442,-174 453.76,-166.08 466.214,-156.659 476.85,-148.269"/>
<polygon fill="black" stroke="black" points="427.614,-178.991 420.777,-187.084 431.169,-185.021 427.614,-178.991"/>
<polygon fill="black" stroke="black" points="479.31,-150.784 484.943,-141.81 474.944,-145.313 479.31,-150.784"/>
</g>
<!-- world_int -->
<g id="node2" class="node"><title>world_int</title>
<ellipse fill="none" stroke="black" cx="188" cy="-125" rx="45.4919" ry="18"/>
<text text-anchor="middle" x="188" y="-121.3" font-family="Times New Roman,serif" font-size="14.00">world_int</text>
</g>
<!-- world_sim -->
<g id="node10" class="node"><title>world_sim</title>
<ellipse fill="none" stroke="black" cx="188" cy="-42" rx="49.2915" ry="18"/>
<text text-anchor="middle" x="188" y="-38.3" font-family="Times New Roman,serif" font-size="14.00">world_sim</text>
</g>
<!-- world_int&#45;&gt;world_sim -->
<g id="edge11" class="edge"><title>world_int&#45;&gt;world_sim</title>
<path fill="none" stroke="black" d="M188,-96.7683C188,-84.663 188,-70.7799 188,-60.1533"/>
<polygon fill="black" stroke="black" points="184.5,-96.8219 188,-106.822 191.5,-96.822 184.5,-96.8219"/>
</g>
<!-- world_ext -->
<g id="node3" class="node"><title>world_ext</title>
<ellipse fill="none" stroke="black" cx="183" cy="-200" rx="47.3916" ry="18"/>
<text text-anchor="middle" x="183" y="-196.3" font-family="Times New Roman,serif" font-size="14.00">world_ext</text>
</g>
<!-- world_ext&#45;&gt;world_int -->
<g id="edge10" class="edge"><title>world_ext&#45;&gt;world_int</title>
<path fill="none" stroke="black" d="M184.884,-171.487C185.535,-161.983 186.246,-151.612 186.824,-143.176"/>
<polygon fill="black" stroke="black" points="181.377,-171.484 184.185,-181.7 188.36,-171.963 181.377,-171.484"/>
</g>
<!-- crane_ext -->
<g id="node4" class="node"><title>crane_ext</title>
<ellipse fill="none" stroke="black" cx="71" cy="-200" rx="46.2923" ry="18"/>
<text text-anchor="middle" x="71" y="-196.3" font-family="Times New Roman,serif" font-size="14.00">crane_ext</text>
</g>
<!-- crane_int -->
<g id="node5" class="node"><title>crane_int</title>
<ellipse fill="none" stroke="black" cx="72" cy="-125" rx="44.393" ry="18"/>
<text text-anchor="middle" x="72" y="-121.3" font-family="Times New Roman,serif" font-size="14.00">crane_int</text>
</g>
<!-- crane_ext&#45;&gt;crane_int -->
<g id="edge7" class="edge"><title>crane_ext&#45;&gt;crane_int</title>
<path fill="none" stroke="black" d="M71.237,-181.7C71.3528,-173.245 71.4949,-162.869 71.625,-153.373"/>
<polygon fill="black" stroke="black" points="75.1273,-153.223 71.7647,-143.176 68.128,-153.127 75.1273,-153.223"/>
</g>
<!-- crane_sim -->
<g id="node11" class="node"><title>crane_sim</title>
<ellipse fill="none" stroke="black" cx="73" cy="-42" rx="48.1917" ry="18"/>
<text text-anchor="middle" x="73" y="-38.3" font-family="Times New Roman,serif" font-size="14.00">crane_sim</text>
</g>
<!-- crane_int&#45;&gt;crane_sim -->
<g id="edge8" class="edge"><title>crane_int&#45;&gt;crane_sim</title>
<path fill="none" stroke="black" d="M72.2121,-106.822C72.3433,-96.1903 72.5147,-82.306 72.6642,-70.2035"/>
<polygon fill="black" stroke="black" points="76.1644,-70.1957 72.7882,-60.1533 69.165,-70.1093 76.1644,-70.1957"/>
</g>
<!-- world_pub -->
<g id="node6" class="node"><title>world_pub</title>
<ellipse fill="none" stroke="black" cx="299" cy="-200" rx="50.8918" ry="18"/>
<text text-anchor="middle" x="299" y="-196.3" font-family="Times New Roman,serif" font-size="14.00">world_pub</text>
</g>
<!-- world_pub&#45;&gt;world_int -->
<g id="edge12" class="edge"><title>world_pub&#45;&gt;world_int</title>
<path fill="none" stroke="black" d="M267.481,-178.271C249.342,-166.342 226.972,-151.63 210.59,-140.857"/>
<polygon fill="black" stroke="black" points="265.722,-181.304 276.001,-183.874 269.569,-175.455 265.722,-181.304"/>
</g>
<!-- visualization -->
<g id="node9" class="node"><title>visualization</title>
<ellipse fill="none" stroke="black" cx="627" cy="-125" rx="54.6905" ry="18"/>
<text text-anchor="middle" x="627" y="-121.3" font-family="Times New Roman,serif" font-size="14.00">visualization</text>
</g>
<!-- world_pub&#45;&gt;visualization -->
<g id="edge14" class="edge"><title>world_pub&#45;&gt;visualization</title>
<path fill="none" stroke="black" d="M335.18,-187.261C342.962,-185.156 351.195,-183.241 359,-182 403.806,-174.877 520.249,-189.187 563,-174 577.849,-168.725 592.108,-158.697 603.382,-149.165"/>
<polygon fill="black" stroke="black" points="605.867,-151.639 611.03,-142.388 601.224,-146.401 605.867,-151.639"/>
</g>
<!-- simulation2 -->
<g id="node12" class="node"><title>simulation2</title>
<polygon fill="none" stroke="black" points="390,-60 310,-60 310,-24 390,-24 390,-60"/>
<text text-anchor="middle" x="350" y="-38.3" font-family="Times New Roman,serif" font-size="14.00">simulation2</text>
</g>
<!-- x&#45;&gt;simulation2 -->
<g id="edge2" class="edge"><title>x&#45;&gt;simulation2</title>
<path fill="none" stroke="black" d="M383.88,-99.005C378.109,-89.4655 371.52,-78.5743 365.697,-68.948"/>
<polygon fill="black" stroke="black" points="368.508,-66.8329 360.337,-60.0883 362.519,-70.4562 368.508,-66.8329"/>
</g>
<!-- simulation3 -->
<g id="node13" class="node"><title>simulation3</title>
<polygon fill="none" stroke="black" points="488,-60 408,-60 408,-24 488,-24 488,-60"/>
<text text-anchor="middle" x="448" y="-38.3" font-family="Times New Roman,serif" font-size="14.00">simulation3</text>
</g>
<!-- x&#45;&gt;simulation3 -->
<g id="edge3" class="edge"><title>x&#45;&gt;simulation3</title>
<path fill="none" stroke="black" d="M414.12,-99.005C419.891,-89.4655 426.48,-78.5743 432.303,-68.948"/>
<polygon fill="black" stroke="black" points="435.481,-70.4562 437.663,-60.0883 429.492,-66.8329 435.481,-70.4562"/>
</g>
<!-- world_opt -->
<g id="node14" class="node"><title>world_opt</title>
<ellipse fill="none" stroke="black" cx="185" cy="-322" rx="48.9926" ry="18"/>
<text text-anchor="middle" x="185" y="-318.3" font-family="Times New Roman,serif" font-size="14.00">world_opt</text>
</g>
<!-- world_opt&#45;&gt;world_ext -->
<g id="edge9" class="edge"><title>world_opt&#45;&gt;world_ext</title>
<path fill="none" stroke="black" d="M184.543,-293.573C184.156,-270.369 183.614,-237.84 183.286,-218.161"/>
<polygon fill="black" stroke="black" points="181.047,-293.867 184.713,-303.807 188.046,-293.75 181.047,-293.867"/>
</g>
<!-- crane_opt -->
<g id="node15" class="node"><title>crane_opt</title>
<ellipse fill="none" stroke="black" cx="71" cy="-322" rx="47.3916" ry="18"/>
<text text-anchor="middle" x="71" y="-318.3" font-family="Times New Roman,serif" font-size="14.00">crane_opt</text>
</g>
<!-- crane_opt&#45;&gt;crane_ext -->
<g id="edge6" class="edge"><title>crane_opt&#45;&gt;crane_ext</title>
<path fill="none" stroke="black" d="M71,-303.807C71,-284.114 71,-251.583 71,-228.39"/>
<polygon fill="black" stroke="black" points="74.5001,-228.161 71,-218.161 67.5001,-228.161 74.5001,-228.161"/>
</g>
<!-- browser -->
<g id="node16" class="node"><title>browser</title>
<polygon fill="none" stroke="black" points="314,-340 252,-340 252,-304 314,-304 314,-340"/>
<text text-anchor="middle" x="283" y="-318.3" font-family="Times New Roman,serif" font-size="14.00">browser</text>
</g>
<!-- browser&#45;&gt;visualization -->
<g id="edge15" class="edge"><title>browser&#45;&gt;visualization</title>
<path fill="none" stroke="black" d="M314.035,-320.76C416.34,-319.652 738.2,-313.508 769,-280 798.476,-247.933 793.506,-218.007 769,-182 753.154,-158.718 725.994,-145.115 699.643,-137.168"/>
<polygon fill="black" stroke="black" points="700.566,-133.792 689.994,-134.488 698.693,-140.537 700.566,-133.792"/>
</g>
<!-- user2 -->
<g id="node17" class="node"><title>user2</title>
<polygon fill="none" stroke="black" points="870,-218 816,-218 816,-182 870,-182 870,-218"/>
<text text-anchor="middle" x="843" y="-196.3" font-family="Times New Roman,serif" font-size="14.00">user2</text>
</g>
<!-- user2&#45;&gt;visualization -->
<g id="edge4" class="edge"><title>user2&#45;&gt;visualization</title>
<path fill="none" stroke="black" d="M815.778,-187.341C811.203,-185.489 806.486,-183.644 802,-182 771.387,-170.778 737.323,-159.59 707.443,-150.198"/>
<polygon fill="black" stroke="black" points="708.488,-146.857 697.899,-147.214 706.399,-153.538 708.488,-146.857"/>
</g>
<!-- user3 -->
<g id="node18" class="node"><title>user3</title>
<polygon fill="none" stroke="black" points="760,-218 706,-218 706,-182 760,-182 760,-218"/>
<text text-anchor="middle" x="733" y="-196.3" font-family="Times New Roman,serif" font-size="14.00">user3</text>
</g>
<!-- user3&#45;&gt;visualization -->
<g id="edge5" class="edge"><title>user3&#45;&gt;visualization</title>
<path fill="none" stroke="black" d="M708.148,-181.885C707.534,-181.462 706.912,-181.034 706.285,-180.602"/>
<polygon fill="black" stroke="black" points="708.015,-177.543 697.794,-174.754 704.044,-183.309 708.015,-177.543"/>
</g>
</g>
</svg>
